<svg width="24" height="27" viewBox="0 0 24 27" fill="none" xmlns="http://www.w3.org/2000/svg">
<path d="M0.00619587 14.6056V5.26258C-0.0203578 4.86104 0.0386418 4.45845 0.179292 4.08142C0.319943 3.70439 0.539039 3.36151 0.822089 3.07548C1.10514 2.78944 1.44569 2.56676 1.82123 2.42216C2.19676 2.27756 2.59871 2.21434 3.0005 2.23668C3.94386 2.23668 4.88511 2.23668 5.82425 2.23668C5.93092 2.25141 6.03959 2.23685 6.13863 2.19456C6.23766 2.15228 6.32333 2.08386 6.38647 1.99663C6.51008 1.8396 6.67437 1.71947 6.86148 1.64931C7.0486 1.57914 7.25137 1.56162 7.44775 1.59865C7.51412 1.62169 7.58474 1.62988 7.65462 1.62265C7.7245 1.61541 7.79194 1.59293 7.85219 1.55678C7.91243 1.52064 7.96401 1.47171 8.00328 1.41345C8.04255 1.3552 8.06855 1.28903 8.07946 1.21963C8.21037 0.856096 8.45213 0.542851 8.77063 0.324098C9.08912 0.105345 9.46827 -0.0078717 9.85457 0.000425556C10.2465 -0.00574716 10.6301 0.113517 10.9495 0.340809C11.2688 0.5681 11.5071 0.891517 11.6297 1.26385C11.6394 1.31977 11.6604 1.37312 11.6914 1.42063C11.7225 1.46814 11.7629 1.50882 11.8102 1.54017C11.8575 1.57151 11.9107 1.59287 11.9666 1.60292C12.0224 1.61298 12.0798 1.61153 12.135 1.59865C12.3673 1.5544 12.6073 1.57861 12.826 1.66833C13.0447 1.75806 13.2326 1.90943 13.3669 2.10402C13.4869 2.2809 13.6511 2.23036 13.8028 2.23036H16.6644C17.0657 2.21006 17.4667 2.27468 17.8414 2.41999C18.216 2.5653 18.5557 2.78804 18.8383 3.07364C19.1209 3.35925 19.3401 3.70128 19.4814 4.07739C19.6228 4.4535 19.6832 4.85521 19.6587 5.25626C19.6587 6.71551 19.6587 8.16844 19.6587 9.62138C19.6587 9.90565 19.7408 10.0004 20.0125 10.0383C21.0996 10.1881 22.0978 10.7201 22.8283 11.539C23.5587 12.3579 23.9737 13.4102 23.9988 14.5073C24.0239 15.6044 23.6575 16.6746 22.9652 17.526C22.2729 18.3775 21.3001 18.9546 20.2209 19.1539C19.7598 19.2423 19.665 19.4129 19.6713 19.8488C19.7092 21.2322 19.6713 22.6157 19.6713 23.9991C19.6941 24.3964 19.6328 24.794 19.4915 25.166C19.3502 25.538 19.1321 25.876 18.8513 26.1579C18.5705 26.4399 18.2335 26.6595 17.8621 26.8024C17.4907 26.9452 17.0934 27.0082 16.696 26.9871H2.97524C2.57846 27.0092 2.18149 26.9471 1.81041 26.8049C1.43933 26.6627 1.10253 26.4436 0.822127 26.162C0.541725 25.8804 0.324065 25.5427 0.183442 25.171C0.0428189 24.7993 -0.0175854 24.4021 0.00619587 24.0054V14.6056Z" fill="#333333"/>
<path d="M2.01505 14.6119V5.30681C2.01505 4.48558 2.27405 4.2329 3.10159 4.2329C3.92913 4.2329 4.9525 4.2329 5.8748 4.2329C5.96825 4.22277 6.06271 4.23794 6.14828 4.27684C6.23386 4.31574 6.3074 4.37693 6.36121 4.454C6.46791 4.59377 6.60712 4.70539 6.76675 4.77915C6.92638 4.8529 7.1016 4.88658 7.27719 4.87725H12.3941C12.5604 4.89262 12.728 4.86597 12.8814 4.79975C13.0349 4.73353 13.1692 4.62985 13.2721 4.49822C13.3439 4.40106 13.4403 4.32472 13.5513 4.27699C13.6622 4.22927 13.7839 4.21187 13.9038 4.22658C14.8451 4.22658 15.799 4.22658 16.7276 4.22658C16.8562 4.20876 16.9872 4.22098 17.1103 4.2623C17.2334 4.30362 17.3452 4.3729 17.437 4.46471C17.5288 4.55652 17.5981 4.66836 17.6394 4.79145C17.6808 4.91455 17.693 5.04554 17.6752 5.17415C17.6752 6.75974 17.6752 8.3327 17.6752 9.93725C17.6861 10.0422 17.6607 10.1478 17.6033 10.2363C17.5458 10.3249 17.4597 10.391 17.3593 10.4237C16.5551 10.7835 15.8754 11.3731 15.4055 12.1184C14.9357 12.8636 14.6967 13.7312 14.7187 14.6119C14.6927 15.4853 14.926 16.3469 15.3893 17.0878C15.8525 17.8287 16.5248 18.4158 17.3214 18.7749C17.4387 18.8207 17.537 18.9051 17.6002 19.0141C17.6633 19.1232 17.6875 19.2504 17.6688 19.375C17.6688 20.8785 17.6688 22.3756 17.6688 23.8728C17.6688 24.7445 17.4098 25.0099 16.5444 25.0099H3.12686C2.28668 25.0099 2.01505 24.7382 2.01505 23.9107V14.6119Z" fill="#F8F2F0"/>
<path d="M23.2974 14.6182C23.2986 15.4082 23.0651 16.1807 22.6264 16.8377C22.1878 17.4947 21.5638 18.0066 20.8337 18.3083C20.1036 18.61 19.3003 18.688 18.5258 18.5323C17.7513 18.3767 17.0406 17.9944 16.4837 17.434C15.9269 16.8736 15.5492 16.1604 15.3984 15.385C15.2477 14.6095 15.3308 13.8067 15.6371 13.0786C15.9435 12.3504 16.4593 11.7297 17.1191 11.2952C17.7789 10.8608 18.5529 10.6322 19.3429 10.6384C19.8638 10.6401 20.3794 10.7443 20.8601 10.9452C21.3408 11.1461 21.7772 11.4398 22.1444 11.8093C22.5116 12.1789 22.8024 12.6171 23.0002 13.0991C23.1981 13.581 23.299 14.0972 23.2974 14.6182Z" fill="#01CFFA"/>
<path d="M0.675818 14.5993V5.3826C0.675818 3.7212 1.50336 2.89998 3.20266 2.89998H5.64106C5.88111 2.89998 6.08958 2.86208 6.08958 3.2411C6.08958 3.62013 5.84321 3.56327 5.62211 3.56327C4.6935 3.56327 3.76488 3.56327 2.84259 3.56327C2.63758 3.55741 2.43363 3.59464 2.24392 3.67256C2.0542 3.75047 1.88296 3.86734 1.74125 4.0156C1.59954 4.16385 1.49053 4.3402 1.42126 4.53324C1.35199 4.72628 1.324 4.9317 1.33911 5.13623C1.33911 11.4533 1.33911 17.7704 1.33911 24.0876C1.32835 24.2942 1.36091 24.5009 1.43471 24.6942C1.50851 24.8875 1.62191 25.0633 1.76765 25.2102C1.91339 25.3572 2.08823 25.472 2.28097 25.5474C2.4737 25.6227 2.68006 25.657 2.88681 25.6479C7.51935 25.6479 12.1519 25.6479 16.7844 25.6479C16.993 25.6545 17.2006 25.6174 17.3939 25.539C17.5873 25.4607 17.7622 25.3428 17.9073 25.1929C18.0524 25.043 18.1646 24.8645 18.2367 24.6687C18.3088 24.4729 18.3391 24.2642 18.3258 24.056C18.3258 22.5588 18.3258 21.0553 18.3258 19.5582C18.3258 19.4382 18.1616 19.1539 18.509 19.1918C18.7364 19.2234 18.9891 19.1918 18.9765 19.5898C18.9765 21.0869 18.9323 22.5904 18.9765 24.0876C18.9826 24.3887 18.9275 24.6879 18.8145 24.967C18.7015 25.2462 18.5329 25.4995 18.3191 25.7116C18.1053 25.9236 17.8506 26.09 17.5705 26.2007C17.2904 26.3114 16.9907 26.364 16.6897 26.3554H3.03842C2.72276 26.3809 2.40532 26.3378 2.10795 26.2289C1.81057 26.12 1.54032 25.948 1.31579 25.7247C1.09126 25.5013 0.917785 25.232 0.807307 24.9352C0.696829 24.6384 0.651971 24.3212 0.675818 24.0054C0.669501 20.8469 0.675818 17.7262 0.675818 14.5993Z" fill="#FCCA50"/>
<path d="M9.81666 4.22024H7.52356C6.89184 4.22024 6.74023 4.08759 6.7276 3.45587C6.7276 2.27458 6.7276 2.26194 7.91522 2.26194C8.30688 2.26194 8.54693 2.19877 8.57851 1.72499C8.62589 1.42818 8.77752 1.15799 9.00619 0.962922C9.23486 0.767858 9.52558 0.660706 9.82614 0.660706C10.1267 0.660706 10.4174 0.767858 10.6461 0.962922C10.8748 1.15799 11.0264 1.42818 11.0738 1.72499C11.1243 2.18614 11.3454 2.26826 11.7371 2.26194C12.9499 2.26194 12.9626 2.26194 12.9436 3.52536C12.9436 4.08759 12.7668 4.25183 12.1919 4.25183C11.377 4.22656 10.6063 4.22024 9.81666 4.22024Z" fill="#F0B990"/>
<path d="M18.9575 7.25877C18.9575 8.05473 18.9575 8.85069 18.9575 9.64032C18.9575 9.98145 18.7933 10.0257 18.5343 10.0446C18.1742 10.0446 18.3069 9.80457 18.3069 9.65928C18.3069 8.20002 18.3069 6.74709 18.3069 5.29416C18.3355 5.06635 18.3124 4.83501 18.2394 4.61733C18.1664 4.39965 18.0453 4.20121 17.8851 4.03674C17.7249 3.87228 17.5297 3.74602 17.314 3.66733C17.0983 3.58864 16.8676 3.55955 16.6391 3.58222C15.7295 3.58222 14.8198 3.58222 13.9038 3.58222C13.6575 3.58222 13.5374 3.538 13.5374 3.24741C13.5374 2.95683 13.6322 2.90629 13.8912 2.90629C14.864 2.90629 15.8305 2.90629 16.8034 2.90629C17.0871 2.90117 17.369 2.95319 17.6323 3.05923C17.8955 3.16528 18.1348 3.32319 18.3357 3.52358C18.5367 3.72396 18.6953 3.96273 18.8021 4.22566C18.909 4.4886 18.9618 4.77033 18.9575 5.05411C18.9575 5.79321 18.9575 6.52599 18.9575 7.25877Z" fill="#FCCA50"/>
<path d="M4.74402 22.0598C3.26582 22.1482 3.05735 21.7818 3.08894 20.411C3.12684 18.857 3.20265 18.7496 4.77561 18.7496C5.02829 18.7496 5.27466 18.7496 5.52734 18.7496C5.64538 18.7488 5.7624 18.7714 5.87161 18.8162C5.98082 18.8609 6.08005 18.927 6.16351 19.0105C6.24698 19.0939 6.31302 19.1931 6.3578 19.3024C6.40258 19.4116 6.42521 19.5286 6.42437 19.6466C6.42437 20.1478 6.42437 20.6468 6.42437 21.1438C6.42467 21.2687 6.39922 21.3924 6.34961 21.5071C6.3 21.6218 6.22728 21.7251 6.13601 21.8104C6.04473 21.8958 5.93684 21.9614 5.81908 22.0032C5.70132 22.045 5.5762 22.0621 5.45154 22.0534L4.74402 22.0598Z" fill="#333333"/>
<path d="M4.79457 7.83364H5.42628C5.56246 7.81694 5.70066 7.8317 5.83024 7.87678C5.95982 7.92187 6.07733 7.99608 6.17374 8.0937C6.27014 8.19133 6.34287 8.30976 6.38632 8.4399C6.42977 8.57004 6.44279 8.70841 6.42438 8.84437C6.42438 9.2992 6.42438 9.75404 6.42438 10.2089C6.43193 10.3339 6.41265 10.459 6.36784 10.576C6.32304 10.6929 6.25373 10.7989 6.16458 10.8869C6.07544 10.9748 5.96851 11.0427 5.85097 11.0859C5.73344 11.1291 5.60802 11.1467 5.48313 11.1375C4.98408 11.1375 4.48503 11.1375 3.98598 11.1375C3.8718 11.14 3.75825 11.1199 3.65188 11.0783C3.5455 11.0367 3.44841 10.9745 3.3662 10.8952C3.28399 10.816 3.21828 10.7212 3.17286 10.6164C3.12745 10.5116 3.10322 10.3989 3.10158 10.2847C3.10158 9.75404 3.10158 9.2234 3.10158 8.69908C3.09969 8.58221 3.12185 8.4662 3.16667 8.35825C3.2115 8.2503 3.27804 8.15271 3.36215 8.07156C3.44627 7.9904 3.54618 7.9274 3.65566 7.88647C3.76515 7.84554 3.88188 7.82756 3.99861 7.83364H4.79457Z" fill="#333333"/>
<path d="M4.76929 16.5955C3.19633 16.5955 3.12684 16.4944 3.08894 14.9278C3.08894 13.4875 3.31003 13.2158 4.75665 13.2853C4.99038 13.2853 5.22412 13.2853 5.45785 13.2853C5.58687 13.2749 5.7166 13.2926 5.83814 13.3371C5.95969 13.3816 6.07016 13.4519 6.16199 13.5431C6.25381 13.6343 6.3248 13.7443 6.37009 13.8656C6.41538 13.9868 6.4339 14.1164 6.42437 14.2455C6.42437 14.7004 6.42437 15.1552 6.42437 15.61C6.43525 15.7422 6.4169 15.8751 6.37063 15.9994C6.32436 16.1236 6.2513 16.2362 6.15664 16.329C6.06198 16.4219 5.94803 16.4928 5.8229 16.5366C5.69776 16.5805 5.5645 16.5963 5.43258 16.5829L4.76929 16.5955Z" fill="#333333"/>
<path d="M12.5204 9.01492H8.91332C8.67959 9.01492 8.43322 9.01492 8.4269 8.7117C8.42059 8.40848 8.67327 8.37689 8.92596 8.37689H16.0517C16.2917 8.37689 16.5381 8.37689 16.5444 8.68011C16.5507 8.98333 16.298 9.01492 16.0453 9.01492H12.5204Z" fill="#333333"/>
<path d="M12.4635 19.9498H8.93858C8.69221 19.9498 8.42058 19.9498 8.42058 19.6277C8.42058 19.3055 8.6859 19.3055 8.93858 19.3055H16.0264C16.2791 19.3055 16.5444 19.3055 16.5444 19.6277C16.5444 19.9498 16.2791 19.9498 16.0264 19.9498H12.4635Z" fill="#343333"/>
<path d="M11.2822 14.4792C10.4926 14.4792 9.69663 14.4792 8.90699 14.4792C8.67325 14.4792 8.42689 14.4792 8.42057 14.1697C8.41425 13.8601 8.64167 13.8412 8.88804 13.8412C10.5094 13.8412 12.1371 13.8412 13.7712 13.8412C14.0049 13.8412 14.2513 13.8412 14.2513 14.1507C14.2513 14.4603 13.9859 14.4792 13.7459 14.4792H11.2822Z" fill="#343434"/>
<path d="M10.6505 10.5879C10.063 10.5879 9.48185 10.5879 8.89436 10.5879C8.64799 10.5879 8.42689 10.5311 8.42057 10.2594C8.41426 9.98779 8.63535 9.91199 8.88172 9.91199H12.3498C12.5835 9.91199 12.8046 9.96252 12.792 10.2657C12.7794 10.569 12.552 10.5879 12.3182 10.5879H10.6505Z" fill="#363636"/>
<path d="M10.581 16.0522C10.0062 16.0522 9.43763 16.0522 8.86909 16.0522C8.62904 16.0522 8.43953 15.9764 8.42058 15.7363C8.40163 15.4963 8.62273 15.3699 8.86278 15.3699C10.0188 15.3699 11.1748 15.3699 12.3309 15.3699C12.5583 15.3699 12.7983 15.4078 12.792 15.7111C12.7857 16.0143 12.5772 16.0522 12.3372 16.0459L10.581 16.0522Z" fill="#373737"/>
<path d="M10.5937 21.5165C10.0188 21.5165 9.45027 21.5165 8.87542 21.5165C8.61642 21.5165 8.41427 21.447 8.42058 21.169C8.4269 20.8911 8.648 20.8469 8.85015 20.8469H12.3246C12.5583 20.8469 12.792 20.8911 12.7731 21.2006C12.7541 21.5102 12.5267 21.5165 12.293 21.5165C11.7371 21.5102 11.1622 21.5165 10.5937 21.5165Z" fill="#373737"/>
<path d="M22.3877 13.4559C22.3883 13.6221 22.3476 13.7859 22.2694 13.9325C22.1911 14.0792 22.0776 14.2041 21.9392 14.2961C20.9348 15.0289 19.9304 15.768 18.9196 16.4944C18.8088 16.5934 18.6766 16.6653 18.5334 16.7045C18.3901 16.7436 18.2397 16.7491 18.094 16.7203C17.9482 16.6915 17.8112 16.6293 17.6936 16.5386C17.576 16.4479 17.481 16.3311 17.4161 16.1975C17.0624 15.6669 16.7465 15.1615 16.4307 14.5803C16.3554 14.4717 16.3036 14.3487 16.2783 14.219C16.2531 14.0893 16.2552 13.9558 16.2843 13.8269C16.3134 13.698 16.3689 13.5766 16.4474 13.4703C16.5259 13.3641 16.6256 13.2753 16.7402 13.2095C16.8514 13.1446 16.9745 13.1025 17.1022 13.0858C17.2299 13.0691 17.3596 13.0781 17.4838 13.1122C17.608 13.1463 17.7241 13.2049 17.8253 13.2846C17.9265 13.3642 18.0107 13.4633 18.0731 13.5759C18.2437 13.8223 18.3321 14.2645 18.5848 14.2834C18.8375 14.3024 19.0902 13.9802 19.3429 13.8033C19.8482 13.4306 20.3536 13.0516 20.8653 12.6915C21.0077 12.5886 21.1756 12.5268 21.3507 12.5127C21.5258 12.4987 21.7014 12.5329 21.8585 12.6117C22.0155 12.6906 22.1478 12.8109 22.2411 12.9598C22.3345 13.1086 22.3852 13.2802 22.3877 13.4559Z" fill="#333333"/>
<path d="M9.40605 1.79449C9.39892 1.73554 9.40528 1.67573 9.42466 1.6196C9.44404 1.56347 9.47594 1.51248 9.51793 1.47049C9.55992 1.4285 9.61091 1.39661 9.66704 1.37722C9.72317 1.35784 9.78298 1.35148 9.84193 1.35861C9.89787 1.35412 9.95412 1.36152 10.007 1.3803C10.0599 1.39909 10.1082 1.42885 10.1488 1.46763C10.1893 1.5064 10.2212 1.55332 10.2424 1.6053C10.2635 1.65728 10.2735 1.71314 10.2715 1.76922C10.278 1.82837 10.2715 1.88823 10.2526 1.94464C10.2337 2.00105 10.2027 2.05268 10.1619 2.09594C10.121 2.1392 10.0712 2.17306 10.016 2.19518C9.96074 2.2173 9.90135 2.22716 9.84193 2.22405C9.78356 2.23101 9.72438 2.22474 9.66877 2.2057C9.61316 2.18667 9.56254 2.15536 9.52068 2.1141C9.47881 2.07285 9.44677 2.02269 9.42693 1.96737C9.40709 1.91204 9.39995 1.85295 9.40605 1.79449Z" fill="#393835"/>
<path d="M5.74846 20.4047C5.74846 21.4028 5.74846 21.4028 4.75667 21.4028C3.76488 21.4028 3.79647 21.4028 3.79647 20.43C3.79647 19.4571 3.79647 19.4129 4.81352 19.4129C5.83058 19.4129 5.74846 19.4129 5.74846 20.4047Z" fill="#F7F1EF"/>
<path d="M3.79646 9.47607C3.79646 8.3074 3.65117 8.48428 4.80088 8.48428C5.95059 8.48428 5.74213 8.32635 5.74213 9.47607C5.74213 10.6258 5.91901 10.4931 4.76298 10.4931C3.60695 10.4931 3.79646 10.6384 3.79646 9.47607Z" fill="#F8F2F0"/>
<path d="M3.79646 14.8899C3.79646 13.797 3.65117 13.9486 4.75666 13.9423C5.7674 13.9423 5.7674 13.9423 5.7674 14.972C5.7674 16.0017 5.7674 15.9385 4.78825 15.9385C3.8091 15.9385 3.79646 15.9385 3.79646 14.8899Z" fill="#F7F2F0"/>
<path d="M21.7244 13.4496C21.7186 13.5203 21.6954 13.5884 21.6568 13.6479C21.6182 13.7075 21.5655 13.7565 21.5033 13.7907L18.5659 15.9448C18.3069 16.1343 18.1237 16.0964 17.9342 15.8185C17.6246 15.3068 17.3024 14.7951 16.9929 14.2834C16.8792 14.1065 16.8223 13.9233 17.0371 13.7907C17.2519 13.658 17.3909 13.7907 17.5046 13.9612C17.6183 14.1318 17.8583 14.5298 18.0415 14.8141C18.3258 15.2689 18.4016 15.2878 18.8249 14.9783C19.5913 14.414 20.3578 13.8539 21.1243 13.298C21.238 13.2158 21.3517 13.0958 21.5223 13.1969C21.5742 13.219 21.6199 13.2536 21.6552 13.2977C21.6905 13.3418 21.7143 13.394 21.7244 13.4496Z" fill="#F7F1EF"/>
</svg>
