<svg width="19" height="28" viewBox="0 0 19 28" fill="none" xmlns="http://www.w3.org/2000/svg">
<path d="M11.5337 23.2328H13.7291C14.1414 23.2025 14.5554 23.2612 14.943 23.4049C15.3306 23.5486 15.6828 23.774 15.9757 24.0657C16.2687 24.3574 16.4955 24.7087 16.6408 25.0957C16.7861 25.4827 16.8465 25.8964 16.818 26.3089C16.818 27.6427 16.7669 27.6937 15.4139 27.6937H3.23716C2.47132 27.6937 2.2671 27.4895 2.2671 26.7301C2.23387 26.2459 2.27476 25.7595 2.38836 25.2877C2.56403 24.692 2.92851 24.1695 3.42691 23.7988C3.92531 23.4282 4.53065 23.2295 5.15175 23.2328H7.45564C7.40458 23.0413 7.25141 22.9519 7.14292 22.8435C4.88008 20.6389 2.97647 18.0936 1.50126 15.3C0.704337 13.78 0.210161 12.1197 0.0461757 10.4114C-0.195071 7.97576 0.515324 5.54125 2.02861 3.61759C3.5419 1.69394 5.74073 0.43034 8.16469 0.091365C10.5886 -0.24761 13.0498 0.364333 15.0327 1.79906C17.0156 3.23379 18.3666 5.38003 18.8028 7.7884C19.2368 9.97501 18.9502 12.2434 17.9859 14.2533C16.7613 16.9174 15.1196 19.369 13.1228 21.516C12.625 22.084 12.1017 22.6328 11.5337 23.2328Z" fill="black"/>
<path d="M0.86307 9.65832C0.868595 7.55546 1.63793 5.52623 3.02791 3.94826C4.41788 2.37029 6.33382 1.35105 8.41917 1.08024C10.5045 0.809425 12.6172 1.30547 14.3642 2.47607C16.1111 3.64667 17.3732 5.41208 17.9157 7.44378C18.468 9.72722 18.1873 12.1328 17.1243 14.2278C15.6426 17.2306 13.6737 19.9672 11.2976 22.3265C11.0826 22.6021 10.8091 22.8265 10.4967 22.9832C10.1843 23.1399 9.84091 23.2252 9.49148 23.2328C9.2478 23.2413 9.00486 23.2011 8.77691 23.1145C8.54897 23.028 8.3406 22.8967 8.16404 22.7286C5.48999 20.1056 3.10952 17.2337 1.67358 13.6981C1.12876 12.4215 0.852857 11.0463 0.86307 9.65832Z" fill="#FCCA50"/>
<path d="M9.51063 26.9343C7.49393 26.9343 5.48361 26.9343 3.46691 26.9343C3.14781 26.9343 3.05846 26.8577 3.05846 26.5322C3.05846 25.2558 3.51158 24.4836 4.52632 24.1518C4.8032 24.08 5.08959 24.052 5.37512 24.0688C8.14489 24.0688 10.921 24.0688 13.6717 24.0688C14.9864 24.0688 16.1606 24.8665 15.9819 26.7173C15.9819 26.9981 15.7777 26.9343 15.6182 26.9343H9.49148H9.51063Z" fill="#01CFFA"/>
<path d="M9.52976 16.2126C8.24734 16.2088 6.99484 15.8248 5.93065 15.1092C4.86646 14.3935 4.03838 13.3784 3.55112 12.1922C3.06386 11.0059 2.93931 9.7018 3.19321 8.44476C3.44711 7.18772 4.06807 6.0342 4.97756 5.13007C5.88704 4.22594 7.04421 3.61181 8.30273 3.36533C9.56125 3.11886 10.8646 3.25111 12.0479 3.74537C13.2313 4.23962 14.2415 5.07369 14.9508 6.14208C15.6602 7.21048 16.0368 8.46522 16.033 9.74764C16.0212 11.4652 15.331 13.1086 14.1129 14.3195C12.8948 15.5305 11.2474 16.2109 9.52976 16.2126Z" fill="black"/>
<path d="M15.2033 9.75408C15.1895 10.8742 14.8443 11.9651 14.2114 12.8894C13.5785 13.8137 12.6861 14.5299 11.6468 14.9478C10.6075 15.3657 9.46768 15.4666 8.3711 15.2377C7.27453 15.0089 6.27024 14.4605 5.48482 13.6618C4.6994 12.8631 4.16801 11.8497 3.95761 10.7494C3.74722 9.64916 3.86724 8.51123 4.30255 7.47907C4.73786 6.44691 5.46898 5.56671 6.40375 4.94941C7.33852 4.33212 8.43511 4.00536 9.5553 4.01031C10.3039 4.01447 11.0443 4.16657 11.7339 4.45788C12.4236 4.74919 13.0488 5.17394 13.5737 5.70773C14.0986 6.24152 14.5128 6.8738 14.7924 7.56822C15.0721 8.26264 15.2118 9.0055 15.2033 9.75408Z" fill="#FEFEFE"/>
<path d="M7.01528 9.74131C6.68342 9.50517 6.37709 9.28819 6.10266 9.10311C5.82824 8.91803 5.71974 8.72019 5.89844 8.46491C6.07713 8.20964 6.33879 8.28622 6.56855 8.46491C7.51946 9.47965 8.73841 9.43497 10.0403 9.30733L9.00645 8.45215C8.78309 8.26707 8.57886 8.06923 8.82776 7.77566C9.07666 7.48209 9.30641 7.64802 9.52978 7.8331C9.78378 8.02993 10.0247 8.24311 10.2509 8.4713C10.5444 8.82918 10.9279 9.10239 11.362 9.2628C11.7961 9.4232 12.2651 9.46501 12.7208 9.38392C12.7795 9.37086 12.8405 9.37116 12.8991 9.38481C12.9578 9.39846 13.0126 9.42511 13.0596 9.46278C13.1065 9.50046 13.1444 9.5482 13.1705 9.60248C13.1965 9.65676 13.21 9.7162 13.21 9.77641C13.21 9.83662 13.1965 9.89605 13.1705 9.95034C13.1444 10.0046 13.1065 10.0524 13.0596 10.09C13.0126 10.1277 12.9578 10.1544 12.8991 10.168C12.8405 10.1817 12.7795 10.182 12.7208 10.1689C12.2475 10.0897 11.7616 10.1378 11.313 10.3083C10.8644 10.4787 10.4692 10.7654 10.168 11.139C9.95737 11.3496 9.70847 11.5219 9.47872 11.7133C9.24897 11.9048 9.01922 11.9878 8.80861 11.7133C8.59801 11.4389 8.76394 11.2475 8.98093 11.0751L10.0786 10.1689H7.96619C7.83997 10.1825 7.72142 10.2361 7.62795 10.3221C7.25142 10.5901 6.87488 10.8454 6.50473 11.1134C6.28774 11.2666 6.06437 11.2857 5.90482 11.0624C5.86247 11.014 5.83233 10.9562 5.81693 10.8938C5.80154 10.8314 5.80133 10.7662 5.81634 10.7037C5.83134 10.6411 5.86111 10.5831 5.90316 10.5345C5.9452 10.4859 5.9983 10.4481 6.05799 10.4242L7.01528 9.74131Z" fill="black"/>
</svg>
