<svg width="48" height="48" viewBox="0 0 48 48" fill="none" xmlns="http://www.w3.org/2000/svg">
<circle cx="24" cy="24" r="23.5" fill="white" stroke="black"/>
<path d="M19.7407 20.6471C19.7407 20.2258 19.9105 19.8219 20.2126 19.524C20.5148 19.2262 20.9246 19.0588 21.3519 19.0588H25.6481C26.0754 19.0588 26.4852 19.2262 26.7874 19.524C27.0895 19.8219 27.2593 20.2258 27.2593 20.6471C27.2593 21.0683 27.0895 21.4723 26.7874 21.7701C26.4852 22.068 26.0754 22.2353 25.6481 22.2353H21.3519C20.9246 22.2353 20.5148 22.068 20.2126 21.7701C19.9105 21.4723 19.7407 21.0683 19.7407 20.6471ZM38 16.4118V33.3529C38 34.055 37.7171 34.7283 37.2135 35.2247C36.71 35.7211 36.027 36 35.3148 36H11.6852C10.973 36 10.29 35.7211 9.78647 35.2247C9.2829 34.7283 9 34.055 9 33.3529V16.4118C9 15.7097 9.2829 15.0364 9.78647 14.54C10.29 14.0436 10.973 13.7647 11.6852 13.7647H16.5185V12.7059C16.5185 11.723 16.9146 10.7804 17.6196 10.0854C18.3246 9.39044 19.2808 9 20.2778 9H26.7222C27.7192 9 28.6754 9.39044 29.3804 10.0854C30.0854 10.7804 30.4815 11.723 30.4815 12.7059V13.7647H35.3148C36.027 13.7647 36.71 14.0436 37.2135 14.54C37.7171 15.0364 38 15.7097 38 16.4118ZM19.7407 13.7647H27.2593V12.7059C27.2593 12.5655 27.2027 12.4308 27.102 12.3315C27.0013 12.2322 26.8647 12.1765 26.7222 12.1765H20.2778C20.1353 12.1765 19.9987 12.2322 19.898 12.3315C19.7973 12.4308 19.7407 12.5655 19.7407 12.7059V13.7647ZM12.2222 16.9412V21.604C15.6989 23.4104 19.57 24.3539 23.5 24.3529C27.4302 24.3538 31.3013 23.4098 34.7778 21.6026V16.9412H12.2222ZM34.7778 32.8235V25.1391C31.2329 26.7149 27.3886 27.5297 23.5 27.5294C19.6113 27.5301 15.767 26.7153 12.2222 25.1391V32.8235H34.7778Z" fill="black"/>
</svg>
