<svg width="27" height="27" viewBox="0 0 27 27" fill="none" xmlns="http://www.w3.org/2000/svg">
<path d="M2.10864 19.0926C2.10864 17.561 2.10864 16.0357 2.10864 14.5041C2.08924 13.9625 2.20734 13.4248 2.45192 12.9412C2.6965 12.4575 3.0596 12.0437 3.50733 11.7384L11.583 5.91575C12.1249 5.50806 12.7846 5.2876 13.4627 5.2876C14.1408 5.2876 14.8005 5.50806 15.3424 5.91575C18.0512 7.86084 20.7557 9.81014 23.4561 11.7637C23.8965 12.0675 24.2537 12.477 24.4947 12.9547C24.7358 13.4324 24.8531 13.963 24.8358 14.4978V23.6747C24.853 24.1134 24.7787 24.5508 24.6177 24.9592C24.4567 25.3676 24.2125 25.7381 23.9006 26.047C23.5887 26.356 23.2159 26.5966 22.806 26.7537C22.3961 26.9108 21.9579 26.9808 21.5194 26.9594H15.8234C14.9374 26.9594 14.5576 26.567 14.5576 25.6936C14.5576 24.3772 14.5576 23.0608 14.5576 21.738C14.5662 21.4826 14.4797 21.2331 14.3148 21.0379C14.15 20.8426 13.9185 20.7155 13.6652 20.6811C13.4274 20.6468 13.1849 20.6945 12.9778 20.8164C12.7707 20.9384 12.6114 21.1273 12.526 21.352C12.4672 21.5401 12.4457 21.7379 12.4628 21.9342C12.4628 23.2 12.4628 24.4658 12.4628 25.7316C12.4628 26.605 12.0704 26.9974 11.197 26.9974H5.39968C4.96382 27.0151 4.52901 26.9426 4.12253 26.7843C3.71606 26.6259 3.3467 26.3853 3.03766 26.0775C2.72861 25.7696 2.48655 25.4012 2.32668 24.9953C2.16681 24.5895 2.09257 24.1549 2.10864 23.719V19.0926Z" fill="#01CFFA"/>
<path d="M25.8864 10.5548C25.6183 10.5461 25.3614 10.4455 25.1586 10.27L14.3678 2.54243C13.6273 2.01081 13.3235 2.01081 12.5703 2.54243L1.74156 10.2954C1.56435 10.4584 1.33428 10.5519 1.09361 10.5589C0.852937 10.5659 0.617832 10.4858 0.431475 10.3333C0.241669 10.1905 0.104133 9.98917 0.0400823 9.76042C-0.0239686 9.53166 -0.0109763 9.28819 0.0770551 9.06755C0.172646 8.86477 0.32415 8.69351 0.513751 8.5739C4.20562 5.94106 7.89538 3.29769 11.583 0.643759C12.1196 0.226521 12.7799 0 13.4596 0C14.1392 0 14.7995 0.226521 15.3361 0.643759C19.0364 3.28503 22.7367 5.93474 26.437 8.59288C26.6432 8.70476 26.8018 8.8877 26.8833 9.10771C26.9648 9.32772 26.9636 9.56983 26.88 9.78905C26.817 10.0056 26.6868 10.1964 26.5082 10.3341C26.3296 10.4718 26.1118 10.5491 25.8864 10.5548Z" fill="#FCCA50"/>
<path d="M22.7283 19.0483C22.7283 20.5672 22.7283 22.0798 22.7283 23.5987C22.7582 23.7716 22.7462 23.9492 22.6932 24.1165C22.6402 24.2838 22.5477 24.4358 22.4237 24.5599C22.2996 24.684 22.1475 24.7764 21.9802 24.8295C21.813 24.8825 21.6354 24.8945 21.4625 24.8645C19.9752 24.8645 18.4879 24.8645 17.0322 24.8645C16.7031 24.8645 16.6399 24.7633 16.6462 24.4658C16.6462 23.5798 16.6462 22.6937 16.6462 21.814C16.6517 21.0421 16.3749 20.2948 15.8678 19.7128C15.3608 19.1307 14.6585 18.7541 13.8931 18.6538C13.1278 18.5534 12.3521 18.7363 11.7122 19.168C11.0723 19.5996 10.6122 20.2503 10.4185 20.9976C10.3568 21.2587 10.3291 21.5268 10.3363 21.795C10.3363 22.7064 10.3363 23.6177 10.3363 24.5291C10.3363 24.7316 10.3363 24.8645 10.0515 24.8645C8.46922 24.8645 6.88699 24.8645 5.29843 24.8645C5.15654 24.8699 5.01508 24.8458 4.8829 24.794C4.75072 24.7421 4.63067 24.6635 4.53027 24.5631C4.42987 24.4627 4.35127 24.3427 4.29941 24.2105C4.24754 24.0783 4.22352 23.9368 4.22885 23.7949C4.22885 20.6685 4.22885 17.5356 4.22885 14.4092C4.22735 14.2262 4.27175 14.0457 4.35799 13.8843C4.44422 13.7229 4.56955 13.5856 4.7225 13.4851L12.8235 7.60557C13.008 7.45106 13.2411 7.36639 13.4817 7.36639C13.7224 7.36639 13.9554 7.45106 14.1399 7.60557L22.222 13.4345C22.3897 13.5501 22.5248 13.7069 22.6146 13.8897C22.7044 14.0726 22.7457 14.2754 22.7346 14.4788C22.7283 16.0167 22.7283 17.5356 22.7283 19.0483Z" fill="white"/>
</svg>
