<svg width="60" height="60" viewBox="0 0 60 60" fill="none" xmlns="http://www.w3.org/2000/svg">
<path d="M30.15 59.3C46.2491 59.3 59.3 46.2491 59.3 30.15C59.3 14.0509 46.2491 1 30.15 1C14.0509 1 1 14.0509 1 30.15C1 46.2491 14.0509 59.3 30.15 59.3Z" fill="white" stroke="black" stroke-miterlimit="10"/>
<path d="M15.5 29.68C14.78 30.86 14.57 32.2 13.88 33.33C13.66 33.7 14.02 33.78 14.16 33.94C14.5053 34.3827 14.6664 34.9415 14.61 35.5C14.61 35.82 14.61 36.12 14.16 36.14C13.71 36.16 13.66 35.93 13.63 35.59C13.6183 35.3329 13.5642 35.0795 13.47 34.84C13.3929 34.6296 13.2416 34.4546 13.0446 34.3478C12.8476 34.241 12.6184 34.2098 12.4 34.26C12.1265 34.3021 11.88 34.4486 11.7122 34.6686C11.5444 34.8886 11.4683 35.1651 11.5 35.44C11.5 37.52 11.5 39.59 11.5 41.67V46.67C11.5 47.05 11.5 47.48 10.99 47.47C10.48 47.46 10.44 47.05 10.44 46.66C10.44 42.88 10.35 39.1 10.5 35.33C10.5 34.25 11.17 33.22 10.5 32.12C10.36 31.89 10.59 31.41 10.71 31.06C11.52 28.53 12.36 26.06 13.17 23.48C13.4498 22.4686 14.0408 21.5708 14.8592 20.914C15.6776 20.2571 16.682 19.8744 17.73 19.82C16.8611 18.9296 16.361 17.7437 16.33 16.5C16.33 16.03 15.96 16.15 15.69 16.11C15.42 16.07 15.01 15.96 15.05 15.51C15.09 15.06 15.43 15.01 15.78 15.04C16.34 15.1 16.59 14.9 16.61 14.31C16.656 13.8334 16.7567 13.3636 16.91 12.91C17.3 11.57 17.86 11.24 19.22 11.56C20.2048 11.8068 21.2352 11.8068 22.22 11.56C23.61 11.23 24.22 11.61 24.6 12.97C24.7226 13.3948 24.8063 13.83 24.85 14.27C24.9 14.81 25.1 15.09 25.68 15.03C26.04 15.03 26.37 15.03 26.41 15.51C26.45 15.99 26.12 16.09 25.77 16.09C25.42 16.09 25.14 16.2 25.15 16.65C25.1099 17.8574 24.6131 19.0046 23.76 19.86C24.8701 19.9269 25.9282 20.3535 26.7744 21.0751C27.6205 21.7968 28.2087 22.7744 28.45 23.86C28.96 25.62 29.59 27.35 30.23 29.29C30.97 27.67 31.58 26.22 32.31 24.83C32.7093 24.1468 33.2431 23.5517 33.8791 23.0807C34.5151 22.6097 35.24 22.2727 36.01 22.09C34.77 20.69 34.01 19.18 34.66 17.31C34.7191 17.0597 34.8169 16.8201 34.95 16.6C35.8851 15.6009 36.5704 14.3947 36.95 13.08C37.13 12.08 38.43 11.7 39.45 11.95C39.9476 12.0452 40.3981 12.307 40.7271 12.6923C41.056 13.0777 41.244 13.5636 41.26 14.07C41.2606 14.3177 41.3165 14.562 41.4238 14.7853C41.5311 15.0085 41.687 15.2048 41.88 15.36C43.88 17.16 43.88 19.52 41.8 22.12C44.37 22.73 45.6 24.62 46.49 26.88C47.04 28.29 47.7 29.66 48.34 31.04C48.6506 31.5894 48.7801 32.2228 48.71 32.85C48.6627 32.9888 48.667 33.14 48.7221 33.2759C48.7772 33.4118 48.8794 33.5233 49.01 33.59C49.3554 33.8149 49.6317 34.1312 49.8082 34.5037C49.9847 34.8761 50.0546 35.2902 50.01 35.7C50.01 39.29 50.01 42.89 50.01 46.48C50.01 46.91 50.1 47.48 49.47 47.48C48.84 47.48 48.96 46.88 48.96 46.48C48.96 42.96 48.96 39.44 48.96 35.92C48.96 35.18 48.96 34.41 48.04 34.29C47.12 34.17 46.83 34.81 46.8 35.61C46.8 35.96 46.66 36.18 46.27 36.16C46.2133 36.1643 46.1563 36.1565 46.1028 36.1371C46.0493 36.1177 46.0006 36.0871 45.9599 36.0473C45.9192 36.0076 45.8875 35.9596 45.8668 35.9066C45.8461 35.8536 45.837 35.7968 45.84 35.74C45.84 34.91 45.97 34.13 45.18 33.42C44.575 32.7047 44.0139 31.9533 43.5 31.17C43.67 32.55 43.84 33.93 44.03 35.3C44.36 37.68 44.69 40.05 45.03 42.42C45.18 43.37 44.81 43.75 43.89 43.62C43.19 43.52 42.95 43.82 43.02 44.49C43.055 44.8592 43.055 45.2308 43.02 45.6C43.0396 45.8637 43.0006 46.1285 42.9057 46.3753C42.8108 46.6221 42.6624 46.8448 42.4712 47.0275C42.28 47.2101 42.0506 47.3481 41.7997 47.4315C41.5488 47.5149 41.2825 47.5418 41.02 47.51C39.57 47.51 38.12 47.51 36.68 47.51C35.24 47.51 34.61 46.86 34.55 45.4C34.52 45.0673 34.52 44.7327 34.55 44.4C34.62 43.76 34.35 43.6 33.73 43.6C32.47 43.6 32.4 43.44 32.59 42.14C33.1 38.67 33.59 35.21 34.09 31.74C34.09 31.56 34.09 31.37 34.09 30.88L32.76 33.14C32.6551 33.4104 32.4927 33.6548 32.284 33.8561C32.0753 34.0575 31.8253 34.2111 31.5513 34.3062C31.2773 34.4014 30.986 34.4358 30.6974 34.4071C30.4088 34.3784 30.1299 34.2872 29.88 34.14C29.78 34.14 29.68 33.98 29.59 33.99C27.44 34.28 27.08 32.66 26.59 31.18C26.4258 30.6363 26.1869 30.118 25.88 29.64V45.04C25.88 46.88 25.26 47.51 23.43 47.52H17.93C16.12 47.52 15.5 46.88 15.49 45.02V29.68H15.5Z" fill="black"/>
<path d="M16.59 35.91C16.59 32.8033 16.59 29.6933 16.59 26.58C16.59 26.16 16.74 25.58 16.14 25.48C15.54 25.38 15.5 25.98 15.37 26.35C14.71 28.19 14.08 30.05 13.43 31.89C13.22 32.49 12.97 33.2 12.14 32.89C11.31 32.58 11.45 32.01 11.68 31.33C12.54 28.77 13.33 26.19 14.18 23.63C14.4098 22.8212 14.9041 22.1127 15.5839 21.6178C16.2637 21.123 17.0897 20.8702 17.93 20.9C19.8167 20.9 21.7067 20.9 23.6 20.9C24.4229 20.8864 25.2276 21.1431 25.8906 21.6308C26.5535 22.1185 27.0381 22.8103 27.27 23.6C28.12 26.19 28.93 28.8 29.8 31.39C30.01 32.03 30.04 32.6 29.35 32.88C28.66 33.16 28.3 32.61 28.09 32.01C27.43 30.1 26.77 28.19 26.09 26.29C25.96 25.95 25.96 25.38 25.38 25.45C24.8 25.52 24.87 26.07 24.87 26.5V44.85C24.87 46.46 24.8 46.52 23.16 46.52C21.27 46.52 21.27 46.52 21.27 44.69V38.5C21.27 38.07 21.39 37.5 20.72 37.5C20.05 37.5 20.2 38.11 20.2 38.5C20.2 40.87 20.2 43.24 20.2 45.61C20.2 46.36 19.98 46.54 19.26 46.54C16.26 46.54 16.6 46.6 16.6 43.91L16.59 35.91Z" fill="#FEFEFE"/>
<path d="M38.92 23C39.4 23 39.92 23 40.36 23C41.2926 22.9629 42.2146 23.2085 43.0052 23.7046C43.7957 24.2007 44.4179 24.9241 44.79 25.78C45.72 27.78 46.57 29.78 47.47 31.78C47.75 32.4 47.8 32.93 47.11 33.29C46.42 33.65 46.11 33.18 45.78 32.7C44.92 31.23 44.1 29.7 43.24 28.28C43.05 27.96 42.92 27.43 42.36 27.67C41.8 27.91 42.07 28.25 42.12 28.62C42.73 32.96 43.32 37.31 43.93 41.62C44.03 42.28 43.93 42.72 43.12 42.62C42.31 42.52 42.12 42.84 42.12 43.56C42.12 44.28 41.95 44.74 41.97 45.32C41.97 46.32 41.55 46.55 40.63 46.61C39.53 46.67 39.17 46.3 39.31 45.24C39.3501 44.6507 39.3501 44.0593 39.31 43.47C39.31 43.1 39.24 42.78 38.77 42.81C38.3 42.84 38.33 43.14 38.33 43.45C38.33 44.19 38.33 44.93 38.33 45.67C38.33 46.19 38.33 46.67 37.61 46.57C36.89 46.47 35.86 47.03 35.7 45.7C35.595 44.9677 35.5349 44.2297 35.52 43.49C35.52 42.82 35.24 42.49 34.58 42.62C33.7 42.75 33.64 42.32 33.74 41.62C34.38 37.24 34.97 32.86 35.6 28.49C35.6 28.1 35.6 27.8 35.25 27.67C34.9 27.54 34.67 27.89 34.51 28.17L32.13 32.3C31.9808 32.5955 31.7997 32.8738 31.59 33.13C31.39 33.33 31.1 33.57 30.81 33.4C30.52 33.23 30.81 32.96 30.81 32.73C30.8705 32.518 30.9074 32.3 30.92 32.08C30.55 29.08 32.37 26.88 33.76 24.57C34.1381 24.0585 34.6407 23.6522 35.22 23.3896C35.7993 23.1271 36.4362 23.0171 37.07 23.07C37.73 22.99 38.33 23 38.92 23Z" fill="#FEFEFE"/>
<path d="M20.78 16.07C21.67 16.07 22.56 16.07 23.44 16.07C24.07 16.07 24.19 16.33 24.13 16.87C23.9975 17.6914 23.5822 18.4407 22.9559 18.9884C22.3297 19.5362 21.5318 19.848 20.7 19.87C19.8457 19.8391 19.0311 19.5018 18.405 18.9197C17.7789 18.3377 17.3831 17.5498 17.29 16.7C17.29 16.2 17.44 16.04 17.91 16.05C18.87 16.08 19.83 16.07 20.78 16.07Z" fill="#FEFEFE"/>
<path d="M35.58 19.5C36.6207 19.3 37.6125 18.8992 38.5 18.32C38.61 18.23 38.81 18.11 38.88 18.15C39.8033 18.747 40.816 19.1926 41.88 19.47C42.22 19.57 41.94 19.97 41.81 20.19C41.5112 20.7708 41.0438 21.2477 40.4692 21.5582C39.8946 21.8687 39.2395 21.9983 38.59 21.93C37.8977 21.8888 37.2355 21.6325 36.6959 21.1969C36.1563 20.7613 35.7662 20.168 35.58 19.5Z" fill="#FDFDFD"/>
<path d="M17.5 14.99C17.56 14.71 17.62 14.5 17.65 14.3C17.99 12.43 17.99 12.44 19.88 12.72C20.6483 12.8531 21.4375 12.7982 22.18 12.56C22.99 12.29 23.38 12.5 23.59 13.36C23.99 15 24.03 14.99 22.32 14.99H17.5Z" fill="#FCFDFD"/>
<path d="M38.8399 15.21C39.5498 15.2026 40.2437 15.4203 40.8221 15.8317C41.4006 16.2431 41.8339 16.8271 42.0599 17.5C42.1499 17.75 42.2699 18.04 42.1199 18.24C41.9699 18.44 41.5799 18.35 41.2999 18.24C40.585 18.0422 39.9315 17.6673 39.3999 17.15C38.9999 16.75 38.7099 16.73 38.2999 17.15C37.7633 17.6628 37.1118 18.0399 36.3999 18.25C36.1199 18.34 35.7999 18.5 35.5799 18.25C35.3599 18 35.5799 17.77 35.6399 17.52C35.8546 16.8424 36.2817 16.2519 36.858 15.8359C37.4343 15.4199 38.1292 15.2004 38.8399 15.21Z" fill="#FCFDFD"/>
<path d="M39.79 14.29C39.2848 14.1165 38.7417 14.0854 38.22 14.2C38.01 14.25 37.75 14.4 37.6 14.2C37.45 14 37.6 13.71 37.75 13.49C37.8728 13.2821 38.0537 13.1145 38.2704 13.0079C38.4871 12.9013 38.7303 12.8603 38.97 12.89C39.2126 12.907 39.4452 12.9933 39.6402 13.1387C39.8352 13.284 39.9844 13.4823 40.07 13.71C40.2 14.02 40.23 14.3 39.79 14.29Z" fill="#F9F9F9"/>
</svg>
