<svg width="30" height="27" viewBox="0 0 30 27" fill="none" xmlns="http://www.w3.org/2000/svg">
<path d="M19.6262 1.25H10.5682C5.41638 1.25 1.25 5.45766 1.25 10.6357V16.3643C1.25 21.5423 5.41638 25.75 10.5682 25.75H19.6262C24.7781 25.75 28.9444 21.5423 28.9444 16.3643V10.6357C28.9444 5.45766 24.7781 1.25 19.6262 1.25Z" fill="white" stroke="#FCCA50" stroke-width="1.5" stroke-miterlimit="10"/>
<path d="M15.225 3.83363C16.1706 3.83994 17.0931 4.12627 17.8761 4.65648C18.6591 5.18668 19.2675 5.93698 19.6244 6.81265C19.9813 7.68833 20.0708 8.65012 19.8815 9.5766C19.6922 10.5031 19.2327 11.3527 18.5609 12.0182C17.8892 12.6838 17.0353 13.1353 16.1071 13.316C15.1789 13.4966 14.218 13.3982 13.3456 13.0331C12.4733 12.668 11.7287 12.0527 11.2059 11.2648C10.683 10.4769 10.4053 9.55174 10.4078 8.60613C10.4103 7.97633 10.5369 7.35321 10.7805 6.7724C11.024 6.1916 11.3796 5.66449 11.827 5.22124C12.2744 4.77799 12.8048 4.42728 13.3879 4.18918C13.9709 3.95108 14.5952 3.83026 15.225 3.83363Z" fill="#01CFFA"/>
<path d="M15.3655 14.6436C16.4811 14.6387 17.586 14.8598 18.6138 15.2935C19.6415 15.7272 20.5708 16.3646 21.3455 17.1672C22.3608 18.1872 22.9403 19.5616 22.9619 21.0006C22.9619 21.4222 22.7575 21.6906 22.3933 21.7097C22.3068 21.7141 22.2202 21.7008 22.139 21.6706C22.0578 21.6404 21.9835 21.5941 21.9208 21.5343C21.858 21.4745 21.8081 21.4026 21.774 21.323C21.7399 21.2433 21.7224 21.1575 21.7225 21.0709C21.6139 18.7709 20.2786 17.3525 18.2917 16.5284C17.0586 15.9552 15.6921 15.7308 14.3406 15.8795C12.989 16.0282 11.704 16.5442 10.625 17.3717C9.62187 18.0701 8.93348 19.1348 8.70832 20.3361C8.67437 20.5712 8.65304 20.8079 8.64443 21.0453C8.64459 21.1325 8.62688 21.2189 8.59241 21.299C8.55793 21.3791 8.50741 21.4513 8.44396 21.5112C8.38052 21.571 8.30548 21.6173 8.22349 21.647C8.1415 21.6768 8.05428 21.6894 7.96721 21.6842C7.60304 21.6842 7.39221 21.3903 7.3986 20.9686C7.42456 20.0827 7.65209 19.2142 8.0639 18.4293C8.47572 17.6445 9.06099 16.9637 9.77527 16.4389C10.9177 15.5396 12.2819 14.9657 13.7236 14.7778C14.2672 14.6953 14.8158 14.6504 15.3655 14.6436Z" fill="#01CFFA"/>
<path d="M15.2122 5.08585C15.9102 5.0909 16.591 5.30255 17.1687 5.69411C17.7465 6.08566 18.1954 6.63958 18.4587 7.28596C18.722 7.93234 18.7879 8.64223 18.6482 9.32605C18.5085 10.0099 18.1694 10.637 17.6736 11.1283C17.1779 11.6196 16.5477 11.953 15.8627 12.0866C15.1776 12.2201 14.4684 12.1478 13.8244 11.8787C13.1804 11.6095 12.6305 11.1557 12.2442 10.5744C11.8579 9.99315 11.6524 9.31046 11.6536 8.61251C11.6545 8.14693 11.7473 7.68609 11.9268 7.25651C12.1063 6.82692 12.369 6.43706 12.6997 6.10932C13.0304 5.78159 13.4226 5.52245 13.8538 5.34681C14.285 5.17117 14.7467 5.08248 15.2122 5.08585Z" fill="white"/>
</svg>
